<?xml version="1.0" encoding="UTF-8"?>
<svg width="660px" height="427px" viewBox="0 0 660 427" version="1.1" xmlns="http://www.w3.org/2000/svg" xmlns:xlink="http://www.w3.org/1999/xlink">
    <g id="Custom-Preset-2" stroke="none" stroke-width="1" fill="none" fill-rule="evenodd">
        <g id="Group" transform="translate(257.000000, 0.000000)">
            <polygon id="Path-2" fill="#2574A9" transform="translate(140.950739, 136.980296) scale(-1, 1) translate(-140.950739, -136.980296) " points="0 0 140.950739 0 281.901478 273.960591 140.950739 273.960591"></polygon>
            <polygon id="Path-2" fill="#19B5FE" transform="translate(202.492611, 212.418719) scale(-1, 1) translate(-202.492611, -212.418719) " points="61.5418719 75.4384236 202.492611 75.4384236 343.44335 349.399015 202.492611 349.399015"></polygon>
            <polygon id="Path-2" fill="#81CFE0" transform="translate(262.049261, 289.842365) scale(-1, 1) translate(-262.049261, -289.842365) " points="121.098522 152.862069 262.049261 152.862069 403 426.82266 262.049261 426.82266"></polygon>
        </g>
        <path d="M35.4928753,120.497382 L41.6216278,120.497382 C54.6001626,120.497382 65.6270602,113.513089 71.9537937,100.267016 C78.6256218,86.2984293 74.7666591,80.0366492 60.2258934,80.0366492 L54.4576557,80.0366492 C47.6132803,94.3664921 41.2865468,107.612565 35.4928753,120.497382 Z M79.7915318,39.5759162 L74.1434658,39.5759162 C68.1464065,51.3769634 62.4523463,63.2984293 56.5282231,75.7015707 L61.2149162,75.7015707 C73.5925928,75.7015707 83.0572594,68.7172775 88.7513196,56.7958115 C93.9852537,45.8376963 91.9288652,39.5759162 79.7915318,39.5759162 Z M44.9642725,35 L87.2646819,35 C110.337633,35 114.373308,43.9109948 108.564216,56.0732984 C104.193018,65.2251309 94.3360218,73.5340314 73.4981217,76.9057592 C94.0937292,79.0732984 98.8976699,87.382199 92.9160309,99.9057592 C87.2794864,111.706806 72.5407396,124.95288 40.0944028,124.95288 L2,124.95288 L3.95553583,120.858639 L15.2886233,119.774869 C21.6882929,107.13089 27.8999949,94.1256545 34.111697,81.1204188 L36.1822643,76.7853403 C42.0488718,64.5026178 47.9154793,52.2198953 53.3640561,40.0575916 L43.0087366,39.0942408 L44.9642725,35 Z M135.933127,87.5026178 L152.218951,87.6230366 C157.867017,87.6230366 160.631939,84.8534031 164.197916,77.3874346 C169.201787,66.9109948 167.280991,61.3717277 160.911895,61.3717277 C154.302456,61.3717277 145.328756,68.8376963 135.933127,87.5026178 Z M163.977692,109.298429 L165.570764,110.743455 C155.697372,121.099476 143.26537,127 131.007865,127 C111.179548,127 102.557766,114.356021 113.313213,91.8376963 C124.126176,69.1989529 147.062293,57.1570681 164.246834,57.1570681 C182.272577,57.1570681 186.197386,69.3193717 178.892885,84.6125654 C177.454991,87.6230366 176.357051,89.6701571 174.663394,91.9581152 L133.805044,91.9581152 C125.433443,110.743455 130.765306,118.450262 142.061438,118.450262 C150.473451,118.450262 157.366304,114.837696 163.977692,109.298429 Z M223.305605,115.078534 L224.42827,117.005236 C217.71727,123.507853 210.040733,127 200.787518,127 C188.530013,127 184.566299,121.460733 191.07072,108.094241 C193.256319,103.518325 195.044447,100.026178 197.460109,94.9685864 L212.184144,64.1413613 L202.450243,64.1413613 L204.290747,60.2879581 L215.561179,59.0837696 L231.012624,39.8167539 L243.390301,39.8167539 L233.88992,59.2041885 L248.791201,59.2041885 L246.433055,64.1413613 L231.531774,64.1413613 L209.790817,109.659686 C206.684966,116.162304 208.486566,118.931937 213.29343,118.931937 C216.297721,118.931937 218.915796,117.727749 223.305605,115.078534 Z M275.922251,113.272251 L287.885529,88.2251309 C284.776487,88.947644 282.02796,89.6701571 280.298322,90.2722513 C270.218352,93.7643979 263.068761,99.4240838 258.870111,108.21466 C255.419165,115.439791 257.173529,118.811518 262.821595,118.811518 C266.066229,118.811518 269.577881,117.246073 275.922251,113.272251 Z M302.53672,115.921466 L303.774417,117.60733 C297.606759,124.230366 291.717375,127 284.026392,127 C276.095065,127 273.546735,123.026178 274.850012,116.52356 C265.500377,123.267016 259.150867,127 249.537138,127 C239.202378,127 234.982901,120.73822 239.814225,110.623037 C245.048159,99.6649215 254.115355,93.7643979 276.166226,88.104712 C279.991158,87.1413613 284.714806,86.0575916 289.438455,84.973822 L292.946916,77.6282723 C298.928555,65.104712 297.827425,61.3717277 288.694382,61.3717277 C287.011979,61.3717277 285.392232,61.4921466 283.417111,61.8534031 L278.49229,70.4031414 C274.220704,78.591623 268.581943,81.8429319 264.015422,81.8429319 C259.689244,81.8429319 257.720237,79.6753927 258.656884,75.7015707 C265.024738,64.382199 278.930615,57.1570681 297.557216,57.1570681 C314.621585,57.1570681 317.962906,64.5026178 309.623121,81.9633508 L294.151382,114.356021 C291.965783,118.931937 292.660137,120.497382 294.943398,120.497382 C296.745972,120.497382 298.527986,119.534031 302.53672,115.921466 Z" id="Beta" fill="#2574A9"></path>
    </g>
</svg>