<svg xmlns="http://www.w3.org/2000/svg" width="238" height="54" viewBox="0 0 238 54" fill="none">
<path d="M0 0.46875V28.6523H3.51562V18.5938H10.0195C15.3125 18.5938 19.082 14.8633 19.082 9.51172C19.082 4.17969 15.3516 0.46875 10.0586 0.46875H0ZM3.51562 3.59375H9.14062C13.1836 3.59375 15.4688 5.78125 15.4688 9.51172C15.4688 13.2617 13.1641 15.4688 9.14062 15.4688H3.51562V3.59375Z" fill="#4F8CC8"/>
<path d="M22.5977 28.6523H25.9961V15.9961C25.9961 13.125 27.7148 11.2305 30.3516 11.2305C31.1719 11.2305 31.8945 11.3281 32.168 11.4258V8.125C31.8945 8.08594 31.3867 7.98828 30.8008 7.98828C28.418 7.98828 26.543 9.41406 25.8789 11.6602H25.8008V8.33984H22.5977V28.6523Z" fill="#4F8CC8"/>
<path d="M42.3828 29.0039C47.9883 29.0039 51.7773 24.9609 51.7773 18.4961C51.7773 12.0117 47.9883 7.98828 42.3828 7.98828C36.7578 7.98828 32.9688 12.0117 32.9688 18.4961C32.9688 24.9609 36.7578 29.0039 42.3828 29.0039ZM42.3828 26.0156C38.7891 26.0156 36.4258 23.2812 36.4258 18.4961C36.4258 13.7109 38.7891 10.9766 42.3828 10.9766C45.9766 10.9766 48.3203 13.7109 48.3203 18.4961C48.3203 23.2812 45.9766 26.0156 42.3828 26.0156Z" fill="#4F8CC8"/>
<path d="M58.7891 8.33984H55.3906V29.6875C55.3906 31.9531 54.5898 32.793 52.3828 32.793C52.3633 32.793 51.8945 32.793 51.8555 32.793V35.625C51.8945 35.6445 52.4414 35.6445 52.5 35.6445C56.8359 35.6445 58.7891 33.7695 58.7891 29.6484V8.33984ZM57.0898 4.92188C58.2617 4.92188 59.2188 3.96484 59.2188 2.8125C59.2188 1.64062 58.2617 0.703125 57.0898 0.703125C55.9375 0.703125 54.9805 1.64062 54.9805 2.8125C54.9805 3.96484 55.9375 4.92188 57.0898 4.92188Z" fill="#4F8CC8"/>
<path d="M71.5234 10.9375C74.7266 10.9375 76.8555 13.3594 76.9336 16.7578H65.8984C66.1133 13.3789 68.3398 10.9375 71.5234 10.9375ZM76.8555 22.832C76.2891 24.7461 74.3945 26.0547 71.8164 26.0547C68.1641 26.0547 65.8789 23.4961 65.8789 19.6094V19.4141H80.4492V18.125C80.4492 11.9727 77.0703 7.98828 71.582 7.98828C65.9766 7.98828 62.3828 12.2656 62.3828 18.5742C62.3828 24.9609 65.918 29.0039 71.7383 29.0039C76.1719 29.0039 79.6094 26.3867 80.1953 22.832H76.8555Z" fill="#4F8CC8"/>
<path d="M100.762 15C100.332 11.3477 97.3047 7.98828 92.2266 7.98828C86.6211 7.98828 82.8906 12.0898 82.8906 18.4961C82.8906 25.0391 86.6406 29.0039 92.2656 29.0039C96.875 29.0039 100.273 26.1523 100.801 22.1094H97.4609C96.875 24.5508 95.0586 26.0156 92.2852 26.0156C88.7695 26.0156 86.3477 23.2227 86.3477 18.4961C86.3477 13.8867 88.7305 10.9766 92.2461 10.9766C95.2344 10.9766 96.9531 12.793 97.4414 15H100.762Z" fill="#4F8CC8"/>
<path d="M105.02 3.4375V8.33984H101.992V11.1328H105.02V23.3789C105.02 27.2852 106.465 28.8086 110.195 28.8086C110.996 28.8086 111.934 28.75 112.344 28.6523V25.8008C112.109 25.8398 111.328 25.8984 110.938 25.8984C109.199 25.8984 108.418 25.0586 108.418 23.2031V11.1328H112.363V8.33984H108.418V3.4375H105.02Z" fill="#4F8CC8"/>
<path d="M148.496 16.9922V14.3164H137.031V17.4023H144.98V17.9102C144.98 22.6367 141.543 25.8789 136.543 25.8789C130.801 25.8789 127.246 21.4844 127.246 14.3945C127.246 7.42188 130.742 3.24219 136.543 3.24219C140.508 3.24219 143.457 5.41016 144.629 9.21875H148.32C147.266 3.61328 142.637 0 136.543 0C128.652 0 123.633 5.60547 123.633 14.4141C123.633 23.3789 128.672 29.1211 136.543 29.1211C144.062 29.1211 148.496 24.6094 148.496 16.9922Z" fill="#4F8CC8"/>
<path d="M159.18 26.1133C156.738 26.1133 155.117 24.8438 155.117 22.9102C155.117 20.9961 156.68 19.7852 159.414 19.6094L164.844 19.2773V20.9375C164.844 23.8672 162.383 26.1133 159.18 26.1133ZM158.418 29.0039C161.152 29.0039 163.73 27.4805 164.941 25.1562H165.02V28.6523H168.242V14.6094C168.242 10.5664 165.234 7.98828 160.469 7.98828C155.664 7.98828 152.656 10.6836 152.422 14.1992H155.703C156.133 12.207 157.773 10.9766 160.391 10.9766C163.203 10.9766 164.844 12.4609 164.844 14.9414V16.6406L159.023 16.9727C154.336 17.2461 151.66 19.4336 151.66 22.9102C151.66 26.5625 154.375 29.0039 158.418 29.0039Z" fill="#4F8CC8"/>
<path d="M172.734 28.6523H176.133V0.46875H172.734V28.6523Z" fill="#4F8CC8"/>
<path d="M180.898 28.6523H184.297V8.33984H180.898V28.6523ZM182.598 4.92188C183.77 4.92188 184.727 3.96484 184.727 2.8125C184.727 1.64062 183.77 0.703125 182.598 0.703125C181.445 0.703125 180.488 1.64062 180.488 2.8125C180.488 3.96484 181.445 4.92188 182.598 4.92188Z" fill="#4F8CC8"/>
<path d="M189.062 28.6523H192.461V0.46875H189.062V28.6523Z" fill="#4F8CC8"/>
<path d="M205.195 10.9375C208.398 10.9375 210.527 13.3594 210.605 16.7578H199.57C199.785 13.3789 202.012 10.9375 205.195 10.9375ZM210.527 22.832C209.961 24.7461 208.066 26.0547 205.488 26.0547C201.836 26.0547 199.551 23.4961 199.551 19.6094V19.4141H214.121V18.125C214.121 11.9727 210.742 7.98828 205.254 7.98828C199.648 7.98828 196.055 12.2656 196.055 18.5742C196.055 24.9609 199.59 29.0039 205.41 29.0039C209.844 29.0039 213.281 26.3867 213.867 22.832H210.527Z" fill="#4F8CC8"/>
<path d="M225.977 29.0039C231.582 29.0039 235.371 24.9609 235.371 18.4961C235.371 12.0117 231.582 7.98828 225.977 7.98828C220.352 7.98828 216.562 12.0117 216.562 18.4961C216.562 24.9609 220.352 29.0039 225.977 29.0039ZM225.977 26.0156C222.383 26.0156 220.02 23.2812 220.02 18.4961C220.02 13.7109 222.383 10.9766 225.977 10.9766C229.57 10.9766 231.914 13.7109 231.914 18.4961C231.914 23.2812 229.57 26.0156 225.977 26.0156Z" fill="#4F8CC8"/>
<path d="M3.61523 53.6523C5.41992 53.6523 6.52148 52.7324 6.52148 51.25C6.52148 50.1484 5.73633 49.3281 4.59961 49.2227V49.1172C5.44922 48.9824 6.10547 48.1973 6.10547 47.3066C6.10547 46.0059 5.13867 45.1973 3.5332 45.1973H0V53.6523H3.61523ZM1.51172 46.3984H3.16406C4.07812 46.3984 4.61133 46.832 4.61133 47.5762C4.61133 48.3379 4.04297 48.7539 2.9707 48.7539H1.51172V46.3984ZM1.51172 52.4512V49.8438H3.21094C4.36523 49.8438 4.97461 50.2891 4.97461 51.1328C4.97461 51.9941 4.38281 52.4512 3.26953 52.4512H1.51172Z" fill="#4F8CC8"/>
<path d="M12.7832 53.6523V50.3477L15.748 45.1973H14.0898L12.0801 48.8125H11.9805L9.96484 45.1973H8.30664L11.2715 50.3477V53.6523H12.7832Z" fill="#4F8CC8"/>
<path d="M25.9336 53.8633C27.8848 53.8633 29.3145 52.6973 29.5137 50.9688H28.0254C27.8203 51.918 27.0059 52.5156 25.9336 52.5156C24.4922 52.5156 23.5957 51.332 23.5957 49.4219C23.5957 47.5176 24.4922 46.334 25.9277 46.334C26.9941 46.334 27.8086 46.9902 28.0195 48.0039H29.5078C29.332 46.2402 27.8496 44.9863 25.9277 44.9863C23.5312 44.9863 22.0488 46.6797 22.0488 49.4277C22.0488 52.1641 23.5371 53.8633 25.9336 53.8633Z" fill="#4F8CC8"/>
<path d="M37.5859 52.3281H33.707V45.1973H32.1953V53.6523H37.5859V52.3281Z" fill="#4F8CC8"/>
<path d="M43.584 44.9863C41.1289 44.9863 39.5762 46.6914 39.5762 49.4219C39.5762 52.1523 41.0996 53.8633 43.584 53.8633C46.0508 53.8633 47.5742 52.1465 47.5742 49.4219C47.5742 46.6914 46.0391 44.9863 43.584 44.9863ZM43.584 46.3281C45.084 46.3281 46.0273 47.5293 46.0273 49.4219C46.0273 51.3086 45.0898 52.5215 43.584 52.5215C42.0547 52.5215 41.123 51.3086 41.123 49.4219C41.123 47.5293 42.0781 46.3281 43.584 46.3281Z" fill="#4F8CC8"/>
<path d="M51.8379 45.1973H50.332V50.7402C50.332 52.5859 51.668 53.8633 53.8066 53.8633C55.9453 53.8633 57.2812 52.5859 57.2812 50.7402V45.1973H55.7695V50.5996C55.7695 51.7422 55.0605 52.5098 53.8066 52.5098C52.5527 52.5098 51.8379 51.7422 51.8379 50.5996V45.1973Z" fill="#4F8CC8"/>
<path d="M60.3906 45.1973V53.6523H63.5605C66.0918 53.6523 67.5391 52.0996 67.5391 49.3867C67.5391 46.7324 66.0742 45.1973 63.5605 45.1973H60.3906ZM61.9023 46.5039H63.3613C65.0195 46.5039 65.998 47.5645 65.998 49.4102C65.998 51.2969 65.043 52.3457 63.3613 52.3457H61.9023V46.5039Z" fill="#4F8CC8"/>
<path d="M71.7734 53.6523V50.2246H75.3184V48.9648H71.7734V46.5039H75.6523V45.1973H70.2617V53.6523H71.7734Z" fill="#4F8CC8"/>
<path d="M83.7188 52.3281H79.8398V45.1973H78.3281V53.6523H83.7188V52.3281Z" fill="#4F8CC8"/>
<path d="M91.8027 53.6523H93.4258L90.4199 45.1973H88.7207L85.7207 53.6523H87.25L87.9766 51.4902H91.0879L91.8027 53.6523ZM89.4883 46.8086H89.5879L90.7363 50.2949H88.3281L89.4883 46.8086Z" fill="#4F8CC8"/>
<path d="M97.3906 46.4512H99.1016C100.062 46.4512 100.648 46.9902 100.648 47.8691C100.648 48.7656 100.098 49.2812 99.1367 49.2812H97.3906V46.4512ZM97.3906 50.4824H99.0664L100.725 53.6523H102.453L100.607 50.248C101.615 49.8848 102.201 48.9531 102.201 47.8398C102.201 46.2168 101.088 45.1973 99.3125 45.1973H95.8789V53.6523H97.3906V50.4824Z" fill="#4F8CC8"/>
<path d="M110.508 52.3457H106.547V49.9785H110.291V48.748H106.547V46.5039H110.508V45.1973H105.035V53.6523H110.508V52.3457Z" fill="#4F8CC8"/>
</svg>
