<?xml version="1.0" encoding="UTF-8"?>
<svg width="750px" height="427px" viewBox="0 0 750 427" version="1.1" xmlns="http://www.w3.org/2000/svg" xmlns:xlink="http://www.w3.org/1999/xlink">
    <g id="Custom-Preset-2" stroke="none" stroke-width="1" fill="none" fill-rule="evenodd">
        <g id="Group" transform="translate(2.000000, 0.000000)">
            <polygon id="Path-2" fill="#2574A9" transform="translate(140.950739, 136.980296) scale(-1, 1) translate(-140.950739, -136.980296) " points="0 0 140.950739 0 281.901478 273.960591 140.950739 273.960591"></polygon>
            <polygon id="Path-2" fill="#19B5FE" transform="translate(202.492611, 212.418719) scale(-1, 1) translate(-202.492611, -212.418719) " points="61.5418719 75.4384236 202.492611 75.4384236 343.44335 349.399015 202.492611 349.399015"></polygon>
            <polygon id="Path-2" fill="#81CFE0" transform="translate(262.049261, 289.842365) scale(-1, 1) translate(-262.049261, -289.842365) " points="121.098522 152.862069 262.049261 152.862069 403 426.82266 262.049261 426.82266"></polygon>
        </g>
        <path d="M421.634902,382 L429.168198,382 C445.121062,382 454.896238,373.541667 455.506222,357.5 C456.149478,340.583333 448.018267,333 430.145152,333 L423.054991,333 C422.395099,350.354167 421.785115,366.395833 421.634902,382 Z M432.048568,283 L425.120034,283 C424.19336,297.373333 423.703989,311.893333 423.194846,327 L428.944055,327 C444.127864,327 451.932763,318.493333 452.422133,303.973333 C452.871959,290.626667 446.937546,283 432.048568,283 Z M387.108551,278 L439.060914,278 C467.398566,278 477.274468,288.995984 476.854169,304.004016 C476.537904,315.297189 469.018763,325.550201 445.287534,329.710843 C471.779179,332.385542 482.266255,342.638554 481.833471,358.092369 C481.425656,372.654618 470.636468,389 430.786645,389 L384,389 L384.141487,383.947791 L397.462214,382.610442 C398.341935,367.008032 398.791364,350.959839 399.240793,334.911647 L399.390603,329.562249 C399.815064,314.405622 400.239524,299.248996 400.217048,284.240964 L386.967064,283.052209 L387.108551,278 Z M526.815933,342.853211 L546.873636,343 C553.807032,343 555.689715,339.623853 555.992854,330.522936 C556.418225,317.752294 551.03741,311 543.2189,311 C535.105351,311 528.163855,320.100917 526.815933,342.853211 Z M572.624647,369.203448 L575.353893,370.982759 C569.084112,383.734483 557.25424,391 542.383521,391 C518.327945,391 500.898318,375.431034 501.533975,347.703448 C502.173031,319.827586 523.36112,305 544.209285,305 C566.077991,305 577.543769,319.975862 577.112066,338.806897 C577.027085,342.513793 576.823507,345.034483 576.029964,347.851724 L526.460899,347.851724 C526.659576,370.982759 537.376377,380.472414 551.080766,380.472414 C561.286162,380.472414 567.657167,376.024138 572.624647,369.203448 Z M648.32437,376.232044 L650.768407,378.618785 C646.14759,386.674033 638.674555,391 627.333244,391 C612.30969,391 604.380935,384.138122 604.943703,367.58011 C605.085939,361.911602 605.341777,357.585635 605.498985,351.320442 L606.457205,313.132597 L594.526736,313.132597 L594.646513,308.359116 L607.792731,306.867403 L616.050686,283 L631.221529,283 L630.324319,307.016575 L648.588247,307.016575 L648.434782,313.132597 L630.170854,313.132597 L628.755982,369.519337 C628.553857,377.574586 632.2973,381.005525 638.18889,381.005525 C641.871134,381.005525 644.41249,379.513812 648.32437,376.232044 Z M712.565281,374.299213 L713.367227,344 C710.027186,344.874016 707.119786,345.748031 705.369949,346.476378 C695.163204,350.700787 689.646102,357.547244 689.36465,368.181102 C689.133319,376.92126 693.063339,381 699.841366,381 C703.735127,381 707.102156,379.106299 712.565281,374.299213 Z M746.431571,377.358621 L748.870241,379.434483 C744.998268,387.589655 739.341913,391 729.961832,391 C720.288623,391 714.99049,386.106897 712.996133,378.1 C705.309722,386.403448 699.62313,391 687.898029,391 C675.293544,391 666.696257,383.289655 667.013744,370.834483 C667.357689,357.341379 675.164206,350.075862 698.938616,343.106897 C703.072638,341.92069 708.236387,340.586207 713.400135,339.251724 L713.630692,330.206897 C714.023771,314.786207 710.623409,310.189655 699.484562,310.189655 C697.432669,310.189655 695.52356,310.337931 693.313765,310.782759 L692.019466,321.310345 C691.322761,331.393103 686.237543,335.396552 680.66812,335.396552 C675.391824,335.396552 671.795763,332.727586 670.747979,327.834483 C672.275773,313.896552 685.253598,305 707.970983,305 C728.783039,305 736.906618,314.044828 736.358575,335.544828 L735.341859,375.431034 C735.198234,381.065517 736.907864,382.993103 739.692576,382.993103 C741.891033,382.993103 743.533471,381.806897 746.431571,377.358621 Z" id="Beta" fill="#2574A9"></path>
    </g>
</svg>