<?xml version="1.0" encoding="utf-8"?>
<!DOCTYPE svg PUBLIC "-//W3C//DTD SVG 1.1//EN" "http://www.w3.org/Graphics/SVG/1.1/DTD/svg11.dtd">
<svg version="1.1" xmlns="http://www.w3.org/2000/svg" width="192" height="96" viewBox="0 0 192 96">
<g transform="scale(0.094,0.094)">
<g transform="translate(0,0)">
<g transform="scale(1,-1) translate(0,-820)">
<path stroke="none" fill="#ffffff" d="M592 624Q609 624 635 612Q661 600 679 567Q697 534 689 507Q681 480 664 466Q649 446 633 416Q617 386 603 346Q589 306 584 276Q579 246 577 227Q585 230 598 238Q611 246 628 260Q645 274 658 283Q671 292 680 297Q690 303 704 304Q718 305 730 293Q742 281 743 266Q744 251 741 242Q741 223 739 195Q737 167 729 131Q721 95 712 68Q703 41 696 23Q717 10 749 -2Q781 -14 823 -23Q865 -32 897 -40Q929 -48 950 -58Q953 -60 957 -64Q961 -68 965 -73Q969 -78 972 -82Q975 -86 977 -89Q962 -104 939 -114Q916 -124 886 -126Q856 -128 833 -130Q810 -132 795 -139Q780 -139 758 -133Q736 -127 706 -113Q676 -99 654 -89Q632 -79 618 -74Q598 -84 568 -100Q538 -116 498 -138Q458 -160 428 -176Q398 -192 378 -203Q373 -202 364 -198Q355 -194 344 -184Q333 -174 329 -166Q325 -158 326 -153Q325 -145 325 -134Q325 -123 327 -109Q329 -95 330 -85Q331 -75 331 -68V479Q328 489 332 504Q336 519 352 531Q368 543 383 543Q398 543 408 539Q420 542 439 549Q458 556 484 568Q510 580 529 592Q548 604 561 613Q552 618 540 620Q528 622 512 616Q496 610 484 600Q472 590 464 582L487 622Q486 632 479 647Q472 662 458 682Q444 702 436 717Q428 732 427 742Q445 749 473 767Q501 785 539 801Q577 817 603 808Q629 799 646 779Q655 765 660 745Q665 725 655 699Q645 673 629 653Q613 633 601 620Q600 619 599 619Q598 619 598 618Q598 617 598 617Q598 617 598 617V617L592 624ZM161 508L112 459L143 517Q133 521 118 531Q103 541 86 560Q69 579 62 594Q55 609 54 619Q68 645 99 672Q130 699 176 702Q222 705 249 681Q276 657 287 632Q292 617 286 591Q280 565 254 538Q228 511 202 507Q176 503 161 510V510V508ZM507 411Q498 409 484 407Q470 405 452 406Q434 407 420 411Q406 415 398 419L389 348Q396 352 412 356Q428 360 448 356Q468 352 473 339Q478 326 474 313Q468 308 460 302Q452 296 444 287Q436 278 431 270Q426 262 423 257L428 288Q424 289 418 291Q412 293 404 297Q396 301 390 305Q384 309 381 313L377 153Q386 159 400 169Q414 179 433 194Q452 209 466 221Q480 233 490 242L499 407L507 411ZM58 393Q75 385 99 368Q123 351 139 320Q155 289 149 265Q143 241 130 226Q126 212 120 192Q114 172 109 146Q104 120 102 100Q100 80 100 67L238 312Q230 284 218 242Q206 200 194 145Q182 90 179 48Q176 6 178 -21Q175 -32 173 -50Q171 -68 165 -92Q159 -116 149 -132Q139 -148 129 -157Q118 -156 102 -147Q86 -138 70 -117Q54 -96 48 -80Q42 -64 42 -56Q43 -43 49 -25Q55 -7 65 17Q75 41 77 59Q79 77 77 90Q78 100 79 115Q80 130 81 150Q82 170 82 185Q82 200 82 210Q79 224 75 246Q71 268 67 298Q63 328 61 350Q59 372 57 387V387L58 393ZM676 188Q663 186 644 179Q625 172 600 157Q575 142 556 129Q537 116 525 108Q533 104 545 98Q557 92 573 84Q589 76 601 70Q613 64 622 61Q632 71 643 87Q654 103 662 123Q670 143 672 159Q674 175 675 186V186L676 188ZM387 -92L547 -21Q533 -11 513 3Q493 17 467 31Q441 45 421 47Q401 49 388 45V-93V-93V-92H387Z" />
</g>
</g>
<g transform="translate(1024,0)">
<g transform="scale(1,-1) translate(0,-820)">
<path stroke="none" fill="#ffffff" d="M500 545Q512 551 532 556Q552 561 576 554Q600 547 614 529Q628 511 635 495Q635 494 635 494Q635 494 635 493Q635 492 635 492Q635 492 636 492Q636 497 636 506Q636 515 636 527Q636 539 636 548Q636 557 636 563L631 668Q633 669 636 671Q639 673 643 673Q647 673 651 673Q655 673 657 673Q673 659 685 639Q697 619 698 593Q699 567 695 547Q691 527 691 514Q698 518 708 523Q718 528 732 531Q746 534 757 534Q768 534 775 534L790 549Q790 559 790 575Q790 591 791 612Q792 633 792 649Q792 665 793 676Q778 671 759 677Q740 683 720 707Q700 731 690 753Q680 775 674 786Q693 790 725 798Q757 806 799 804Q841 802 870 785Q899 768 917 748Q931 731 935 707Q939 683 925 651Q911 619 902 595Q893 571 896 555Q894 494 900 404Q906 314 918 194Q930 74 934 -16Q938 -106 936 -166Q922 -180 899 -188Q876 -196 844 -185Q812 -174 788 -157Q764 -140 749 -130Q742 -126 732 -118Q722 -110 709 -98Q696 -86 686 -76Q676 -66 670 -60Q659 -70 643 -84Q627 -98 606 -112Q585 -126 569 -133Q553 -140 543 -144Q561 -95 579 -23Q597 49 609 145Q621 241 627 313Q633 385 639 434Q619 416 598 389Q577 362 555 326Q533 290 512 265Q491 240 471 225V210Q478 216 496 222Q514 228 534 222Q554 216 556 202Q558 188 551 175Q546 163 530 147Q514 131 494 109Q474 87 470 71Q466 55 473 43Q472 29 474 8Q476 -13 478 -41Q480 -69 478 -89Q476 -109 473 -123Q468 -126 462 -130Q456 -134 447 -136Q438 -138 432 -138Q426 -138 422 -138L417 -3V17L412 47Q398 41 376 27Q354 13 326 1Q298 -11 277 -5Q256 1 243 16Q238 20 234 27Q230 34 228 44Q226 54 226 60Q226 66 225 71L335 161Q319 173 297 194Q275 215 251 245Q227 275 211 297Q195 319 184 334Q184 318 180 295Q176 272 169 242Q162 212 159 190Q156 168 157 153Q156 148 156 142Q156 136 155 128Q154 120 154 114Q154 108 154 104Q160 115 170 131Q180 147 192 169Q204 191 212 208Q220 225 226 237Q219 212 211 176Q203 140 199 91Q195 42 198 6Q201 -30 205 -55Q204 -64 200 -78Q196 -92 184 -109Q172 -126 158 -136Q144 -146 135 -152Q128 -142 120 -127Q112 -112 104 -92Q96 -72 92 -57Q88 -42 85 -32V-22Q101 -6 115 18Q129 42 133 74Q137 106 136 130Q135 154 137 171Q135 194 126 228Q117 262 102 308Q87 354 81 389Q75 424 77 448Q85 443 97 435Q109 427 125 415Q141 403 153 397Q165 391 174 389Q186 399 207 407Q228 415 254 425Q280 435 296 452Q312 469 320 488Q323 492 327 498Q331 504 333 512Q335 520 335 526Q335 532 335 536Q328 546 318 562Q308 578 292 595Q276 612 262 618Q248 624 237 624Q227 626 211 629Q195 632 174 641Q153 650 139 664Q125 678 118 691Q128 707 150 727Q172 747 206 753Q240 759 264 743Q288 727 300 707Q302 702 306 694Q310 686 316 677Q322 668 327 661Q332 654 336 650Q340 656 346 665Q352 674 360 686Q368 698 372 708Q376 718 378 725Q375 729 373 736Q371 743 369 752Q367 761 366 768Q365 775 365 780L370 820Q409 831 458 817Q507 803 533 743Q559 683 543 630Q527 577 501 550V550L500 545ZM480 470Q471 467 459 461Q447 455 431 443Q415 431 403 419Q391 407 383 400Q393 397 409 397Q425 397 443 409Q461 421 469 437Q477 453 479 466Q480 468 480 469Q480 470 480 470Q480 470 480 471V471V470ZM699 420Q699 408 699 390Q699 372 699 349Q699 326 699 308Q699 290 699 279Q704 289 714 303Q724 317 736 337Q748 357 754 372Q760 387 763 397Q757 402 749 406Q741 410 730 412Q719 414 711 415Q703 416 698 418V418L699 420ZM330 365L305 345Q306 336 312 324Q318 312 330 296Q342 280 350 268Q358 256 362 248L417 293L377 298L397 322Q391 321 382 323Q373 325 361 333Q349 341 340 350Q331 359 326 366V366L330 365ZM734 251Q739 250 747 250Q755 250 765 250Q775 250 783 248Q791 246 796 244L791 333Q783 326 771 316Q759 306 749 292Q739 278 737 268Q735 258 736 251V251H734ZM425 196Q418 191 408 185Q398 179 386 171Q374 163 365 155Q356 147 350 140Q356 144 367 148Q378 152 392 160Q406 168 414 177Q422 186 425 195V195V196ZM799 -74L804 -59L799 46Q799 52 799 62Q799 72 799 86Q799 100 799 110Q799 120 799 127Q790 127 778 127Q766 127 750 127Q734 127 722 130Q710 133 702 137Q702 123 699 103Q696 83 692 56Q688 29 690 9Q692 -11 697 -25Q705 -30 718 -38Q731 -46 749 -54Q767 -62 781 -66Q795 -70 804 -71V-71V-71V-70L799 -74Z" />
</g>
</g>
</g>
</svg>